<?xml version="1.0" encoding="UTF-8" standalone="no"?>
<!-- Created with Inkscape (http://www.inkscape.org/) -->

<svg
   width="256"
   height="256"
   viewBox="0 0 67.733334 67.733334"
   version="1.1"
   id="svg1"
   inkscape:version="1.3.2 (091e20e, 2023-11-25)"
   sodipodi:docname="lego.svg"
   inkscape:export-filename="lego.png"
   inkscape:export-xdpi="300"
   inkscape:export-ydpi="300"
   xmlns:inkscape="http://www.inkscape.org/namespaces/inkscape"
   xmlns:sodipodi="http://sodipodi.sourceforge.net/DTD/sodipodi-0.dtd"
   xmlns="http://www.w3.org/2000/svg"
   xmlns:svg="http://www.w3.org/2000/svg">
  <sodipodi:namedview
     id="namedview1"
     pagecolor="#ffffff"
     bordercolor="#666666"
     borderopacity="1.0"
     inkscape:showpageshadow="2"
     inkscape:pageopacity="0.0"
     inkscape:pagecheckerboard="0"
     inkscape:deskcolor="#d1d1d1"
     inkscape:document-units="px"
     showgrid="true"
     inkscape:zoom="3.7095118"
     inkscape:cx="146.78481"
     inkscape:cy="156.4896"
     inkscape:window-width="1712"
     inkscape:window-height="1212"
     inkscape:window-x="837"
     inkscape:window-y="112"
     inkscape:window-maximized="0"
     inkscape:current-layer="layer2">
    <inkscape:grid
       id="grid1"
       units="px"
       originx="-27.542059"
       originy="-82.034859"
       spacingx="0.26458333"
       spacingy="0.26458334"
       empcolor="#0099e5"
       empopacity="0.30196078"
       color="#0099e5"
       opacity="0.14901961"
       empspacing="5"
       dotted="false"
       gridanglex="30"
       gridanglez="30"
       visible="true" />
  </sodipodi:namedview>
  <defs
     id="defs1" />
  <g
     inkscape:groupmode="layer"
     id="layer3"
     inkscape:label="Background"
     sodipodi:insensitive="true"
     style="display:none"
     transform="translate(-27.542058,-82.034857)">
    <rect
       style="fill:#6e65e0;fill-opacity:1;stroke:#000000;stroke-width:0.264583;stroke-linecap:round;stroke-linejoin:round;stroke-dasharray:none;stroke-opacity:1"
       id="rect4"
       width="75.248795"
       height="70.810524"
       x="20.779158"
       y="68.692261" />
  </g>
  <g
     inkscape:label="Block"
     inkscape:groupmode="layer"
     id="layer1"
     style="display:inline"
     transform="translate(-27.542058,-82.034857)">
    <path
       style="fill:none;stroke:#000000;stroke-width:0.264583px;stroke-linecap:round;stroke-linejoin:round;stroke-opacity:1"
       d="m 33.184257,117.77647 38.49802,-24.767821 21.028831,9.087531 -39.597975,27.44343 z"
       id="path1"
       sodipodi:nodetypes="ccccc"
       inkscape:export-filename="path1.png"
       inkscape:export-xdpi="300"
       inkscape:export-ydpi="300" />
    <path
       style="fill:#efefef;stroke:#000000;stroke-width:0.264583px;stroke-linecap:round;stroke-linejoin:round;stroke-opacity:1;fill-opacity:1"
       d="M 33.237752,117.9013 53.0915,129.5526 53.04539,140.52451 33.095098,128.45749 Z"
       id="path2"
       sodipodi:nodetypes="ccccc" />
    <path
       style="fill:#e6e6e6;stroke:#000000;stroke-width:0.264583px;stroke-linecap:round;stroke-linejoin:round;stroke-opacity:1;fill-opacity:1"
       d="m 53.074935,140.50794 0.03745,-10.9928 39.598713,-27.35987 -0.20175,11.89445 z"
       id="path3"
       sodipodi:nodetypes="ccccc" />
  </g>
  <g
     inkscape:groupmode="layer"
     id="layer2"
     inkscape:label="Stud"
     style="display:inline"
     transform="translate(-27.542058,-82.034857)">
    <ellipse
       style="fill:#e6e6e6;stroke:#000000;stroke-width:0.264583;stroke-linecap:round;stroke-linejoin:round;stroke-dasharray:none;stroke-opacity:1;fill-opacity:1"
       id="path4-6-9-8-7"
       cx="69.986801"
       cy="110.35456"
       rx="3.0670028"
       ry="2.2824209"
       transform="rotate(-5.8103377)" />
    <ellipse
       style="fill:none;stroke:#000000;stroke-width:0.264583;stroke-linecap:round;stroke-linejoin:round;stroke-dasharray:none;stroke-opacity:1"
       id="path4-6-1-2-5"
       cx="70.113708"
       cy="108.60352"
       rx="3.0670028"
       ry="2.2824209"
       transform="rotate(-5.8103377)" />
    <path
       style="fill:#ffffff;fill-opacity:1;stroke:#000000;stroke-width:0.264583px;stroke-linecap:round;stroke-linejoin:miter;stroke-opacity:1"
       d="m 77.688784,100.99125 0.06304,2.53206 c 0,0 0.689053,1.89638 3.146709,1.9093 2.45766,0.0129 2.95993,-1.87364 2.95993,-1.87364 l -0.0379,-2.64121 c 0,0 0.10473,2.10234 -2.957711,2.3388 -3.062414,0.23647 -3.174101,-2.26531 -3.174101,-2.26531 z"
       id="path4-7"
       sodipodi:nodetypes="cczcczc" />
    <ellipse
       style="fill:#e6e6e6;stroke:#000000;stroke-width:0.264583;stroke-linecap:round;stroke-linejoin:round;stroke-dasharray:none;stroke-opacity:1;fill-opacity:1"
       id="path4-6-9-8-7-3"
       cx="62.077217"
       cy="114.36112"
       rx="3.0670028"
       ry="2.2824209"
       transform="rotate(-5.8103377)" />
    <ellipse
       style="fill:none;stroke:#000000;stroke-width:0.264583;stroke-linecap:round;stroke-linejoin:round;stroke-dasharray:none;stroke-opacity:1"
       id="path4-6-1-2-5-0"
       cx="62.204124"
       cy="112.61008"
       rx="3.0670028"
       ry="2.2824209"
       transform="rotate(-5.8103377)" />
    <path
       style="fill:#ffffff;fill-opacity:1;stroke:#000000;stroke-width:0.264583px;stroke-linecap:round;stroke-linejoin:miter;stroke-opacity:1"
       d="m 70.225442,105.77796 0.06304,2.53206 c 0,0 0.689052,1.89638 3.146708,1.9093 2.45766,0.0129 2.95993,-1.87364 2.95993,-1.87364 l -0.0379,-2.64121 c 0,0 0.10473,2.10234 -2.957711,2.3388 -3.062413,0.23647 -3.174101,-2.26531 -3.174101,-2.26531 z"
       id="path4-7-4"
       sodipodi:nodetypes="cczcczc" />
    <ellipse
       style="fill:#e6e6e6;stroke:#000000;stroke-width:0.264583;stroke-linecap:round;stroke-linejoin:round;stroke-dasharray:none;stroke-opacity:1;fill-opacity:1"
       id="path4-6-9-8-7-2"
       cx="54.253555"
       cy="118.40536"
       rx="3.0670028"
       ry="2.2824209"
       transform="rotate(-5.8103377)" />
    <ellipse
       style="fill:none;stroke:#000000;stroke-width:0.264583;stroke-linecap:round;stroke-linejoin:round;stroke-dasharray:none;stroke-opacity:1"
       id="path4-6-1-2-5-1"
       cx="54.380463"
       cy="116.65432"
       rx="3.0670028"
       ry="2.2824209"
       transform="rotate(-5.8103377)" />
    <path
       style="fill:#ffffff;fill-opacity:1;stroke:#000000;stroke-width:0.264583px;stroke-linecap:round;stroke-linejoin:miter;stroke-opacity:1"
       d="m 62.851397,110.59345 0.06304,2.53206 c 0,0 0.689052,1.89638 3.146708,1.9093 2.45766,0.0129 2.95993,-1.87364 2.95993,-1.87364 l -0.0379,-2.64121 c 0,0 0.10473,2.10234 -2.957711,2.3388 -3.062413,0.23647 -3.174101,-2.26531 -3.174101,-2.26531 z"
       id="path4-7-9"
       sodipodi:nodetypes="cczcczc" />
    <ellipse
       style="fill:#e6e6e6;stroke:#000000;stroke-width:0.264583;stroke-linecap:round;stroke-linejoin:round;stroke-dasharray:none;stroke-opacity:1;fill-opacity:1"
       id="path4-6-9-8-7-6"
       cx="46.445324"
       cy="122.66384"
       rx="3.0670028"
       ry="2.2824209"
       transform="rotate(-5.8103377)" />
    <ellipse
       style="fill:none;stroke:#000000;stroke-width:0.264583;stroke-linecap:round;stroke-linejoin:round;stroke-dasharray:none;stroke-opacity:1"
       id="path4-6-1-2-5-2"
       cx="46.572231"
       cy="120.9128"
       rx="3.0670028"
       ry="2.2824209"
       transform="rotate(-5.8103377)" />
    <path
       style="fill:#ffffff;fill-opacity:1;stroke:#000000;stroke-width:0.264583px;stroke-linecap:round;stroke-linejoin:miter;stroke-opacity:1"
       d="m 55.514389,115.62053 0.06304,2.53206 c 0,0 0.689052,1.89638 3.146708,1.9093 2.45766,0.0129 2.95993,-1.87364 2.95993,-1.87364 l -0.0379,-2.64121 c 0,0 0.10473,2.10234 -2.957711,2.3388 -3.062413,0.23647 -3.174101,-2.26531 -3.174101,-2.26531 z"
       id="path4-7-5"
       sodipodi:nodetypes="cczcczc" />
    <ellipse
       style="fill:#e6e6e6;stroke:#000000;stroke-width:0.264583;stroke-linecap:round;stroke-linejoin:round;stroke-dasharray:none;stroke-opacity:1;fill-opacity:1"
       id="path4-6-9-8-7-37"
       cx="38.635906"
       cy="126.65865"
       rx="3.0670028"
       ry="2.2824209"
       transform="rotate(-5.8103377)" />
    <ellipse
       style="fill:none;stroke:#000000;stroke-width:0.264583;stroke-linecap:round;stroke-linejoin:round;stroke-dasharray:none;stroke-opacity:1"
       id="path4-6-1-2-5-5"
       cx="38.762814"
       cy="124.90762"
       rx="3.0670028"
       ry="2.2824209"
       transform="rotate(-5.8103377)" />
    <path
       style="fill:#ffffff;fill-opacity:1;stroke:#000000;stroke-width:0.264583px;stroke-linecap:round;stroke-linejoin:miter;stroke-opacity:1"
       d="m 48.149512,120.38541 0.06304,2.53206 c 0,0 0.689052,1.89638 3.146708,1.9093 2.45766,0.0129 2.95993,-1.87364 2.95993,-1.87364 l -0.0379,-2.64121 c 0,0 0.10473,2.10234 -2.957711,2.3388 -3.062413,0.23647 -3.174101,-2.26531 -3.174101,-2.26531 z"
       id="path4-7-0"
       sodipodi:nodetypes="cczcczc" />
    <ellipse
       style="fill:#e6e6e6;stroke:#000000;stroke-width:0.264583;stroke-linecap:round;stroke-linejoin:round;stroke-dasharray:none;stroke-opacity:1;fill-opacity:1"
       id="path4-6-9-8-7-5"
       cx="62.101646"
       cy="105.02532"
       rx="3.0670028"
       ry="2.2824209"
       transform="rotate(-5.8103377)" />
    <ellipse
       style="fill:none;stroke:#000000;stroke-width:0.264583;stroke-linecap:round;stroke-linejoin:round;stroke-dasharray:none;stroke-opacity:1"
       id="path4-6-1-2-5-58"
       cx="62.228554"
       cy="103.27428"
       rx="3.0670028"
       ry="2.2824209"
       transform="rotate(-5.8103377)" />
    <path
       style="fill:#ffffff;fill-opacity:1;stroke:#000000;stroke-width:0.264583px;stroke-linecap:round;stroke-linejoin:miter;stroke-opacity:1"
       d="m 69.304627,96.48765 0.06304,2.53206 c 0,0 0.689052,1.89638 3.146708,1.9093 2.45766,0.0129 2.95993,-1.87364 2.95993,-1.87364 l -0.0379,-2.64121 c 0,0 0.10473,2.10234 -2.957711,2.3388 -3.062413,0.23647 -3.174101,-2.26531 -3.174101,-2.26531 z"
       id="path4-7-56"
       sodipodi:nodetypes="cczcczc" />
    <ellipse
       style="fill:#e6e6e6;stroke:#000000;stroke-width:0.264583;stroke-linecap:round;stroke-linejoin:round;stroke-dasharray:none;stroke-opacity:1;fill-opacity:1"
       id="path4-6-9-8-7-3-9"
       cx="54.192062"
       cy="109.03188"
       rx="3.0670028"
       ry="2.2824209"
       transform="rotate(-5.8103377)" />
    <ellipse
       style="fill:none;stroke:#000000;stroke-width:0.264583;stroke-linecap:round;stroke-linejoin:round;stroke-dasharray:none;stroke-opacity:1"
       id="path4-6-1-2-5-0-4"
       cx="54.31897"
       cy="107.28085"
       rx="3.0670028"
       ry="2.2824209"
       transform="rotate(-5.8103377)" />
    <path
       style="fill:#ffffff;fill-opacity:1;stroke:#000000;stroke-width:0.264583px;stroke-linecap:round;stroke-linejoin:miter;stroke-opacity:1"
       d="m 61.841286,101.27436 0.06304,2.53206 c 0,0 0.689052,1.89638 3.146708,1.9093 2.45766,0.0129 2.95993,-1.87364 2.95993,-1.87364 l -0.0379,-2.64121 c 0,0 0.10473,2.10234 -2.957711,2.3388 -3.062413,0.23647 -3.174101,-2.26531 -3.174101,-2.26531 z"
       id="path4-7-4-1"
       sodipodi:nodetypes="cczcczc" />
    <ellipse
       style="fill:#e6e6e6;stroke:#000000;stroke-width:0.264583;stroke-linecap:round;stroke-linejoin:round;stroke-dasharray:none;stroke-opacity:1;fill-opacity:1"
       id="path4-6-9-8-7-2-1"
       cx="46.368401"
       cy="113.07612"
       rx="3.0670028"
       ry="2.2824209"
       transform="rotate(-5.8103377)" />
    <ellipse
       style="fill:none;stroke:#000000;stroke-width:0.264583;stroke-linecap:round;stroke-linejoin:round;stroke-dasharray:none;stroke-opacity:1"
       id="path4-6-1-2-5-1-2"
       cx="46.495308"
       cy="111.32508"
       rx="3.0670028"
       ry="2.2824209"
       transform="rotate(-5.8103377)" />
    <path
       style="fill:#ffffff;fill-opacity:1;stroke:#000000;stroke-width:0.264583px;stroke-linecap:round;stroke-linejoin:miter;stroke-opacity:1"
       d="m 54.467241,106.08985 0.06304,2.53206 c 0,0 0.689052,1.89638 3.146708,1.9093 2.45766,0.0129 2.95993,-1.87364 2.95993,-1.87364 l -0.0379,-2.64121 c 0,0 0.10473,2.10234 -2.957711,2.3388 -3.062413,0.23647 -3.174101,-2.26531 -3.174101,-2.26531 z"
       id="path4-7-9-0"
       sodipodi:nodetypes="cczcczc" />
    <ellipse
       style="fill:#e6e6e6;stroke:#000000;stroke-width:0.264583;stroke-linecap:round;stroke-linejoin:round;stroke-dasharray:none;stroke-opacity:1;fill-opacity:1"
       id="path4-6-9-8-7-6-4"
       cx="38.560165"
       cy="117.3346"
       rx="3.0670028"
       ry="2.2824209"
       transform="rotate(-5.8103377)" />
    <ellipse
       style="fill:none;stroke:#000000;stroke-width:0.264583;stroke-linecap:round;stroke-linejoin:round;stroke-dasharray:none;stroke-opacity:1"
       id="path4-6-1-2-5-2-5"
       cx="38.687073"
       cy="115.58356"
       rx="3.0670028"
       ry="2.2824209"
       transform="rotate(-5.8103377)" />
    <path
       style="fill:#ffffff;fill-opacity:1;stroke:#000000;stroke-width:0.264583px;stroke-linecap:round;stroke-linejoin:miter;stroke-opacity:1"
       d="m 47.130233,111.11693 0.06304,2.53206 c 0,0 0.689052,1.89638 3.146708,1.9093 2.45766,0.0129 2.95993,-1.87364 2.95993,-1.87364 l -0.0379,-2.64121 c 0,0 0.10473,2.10234 -2.957711,2.3388 -3.062413,0.23647 -3.174101,-2.26531 -3.174101,-2.26531 z"
       id="path4-7-5-9"
       sodipodi:nodetypes="cczcczc" />
    <ellipse
       style="fill:#e6e6e6;stroke:#000000;stroke-width:0.264583;stroke-linecap:round;stroke-linejoin:round;stroke-dasharray:none;stroke-opacity:1;fill-opacity:1"
       id="path4-6-9-8-7-37-5"
       cx="30.75075"
       cy="121.32941"
       rx="3.0670028"
       ry="2.2824209"
       transform="rotate(-5.8103377)" />
    <ellipse
       style="fill:none;stroke:#000000;stroke-width:0.264583;stroke-linecap:round;stroke-linejoin:round;stroke-dasharray:none;stroke-opacity:1"
       id="path4-6-1-2-5-5-3"
       cx="30.877657"
       cy="119.57838"
       rx="3.0670028"
       ry="2.2824209"
       transform="rotate(-5.8103377)" />
    <path
       style="fill:#ffffff;fill-opacity:1;stroke:#000000;stroke-width:0.264583px;stroke-linecap:round;stroke-linejoin:miter;stroke-opacity:1"
       d="m 39.765356,115.88181 0.06304,2.53206 c 0,0 0.689052,1.89638 3.146708,1.9093 2.45766,0.0129 2.95993,-1.87364 2.95993,-1.87364 l -0.0379,-2.64121 c 0,0 0.10473,2.10234 -2.957711,2.3388 -3.062413,0.23647 -3.174101,-2.26531 -3.174101,-2.26531 z"
       id="path4-7-0-9"
       sodipodi:nodetypes="cczcczc" />
  </g>
</svg>
